<?xml version="1.0" encoding="utf-8"?>
<!-- Generated by IcoMoon.io -->
<!DOCTYPE svg PUBLIC "-//W3C//DTD SVG 1.1//EN" "http://www.w3.org/Graphics/SVG/1.1/DTD/svg11.dtd">
<svg version="1.1" xmlns="http://www.w3.org/2000/svg" xmlns:xlink="http://www.w3.org/1999/xlink" width="32" height="32" viewBox="0 0 32 32">
<path fill="#ff3d7f" d="M16 0c-8.822 0-16 7.177-16 16s7.178 16 16 16 16-7.177 16-16-7.178-16-16-16zM16 30.769c-8.143 0-14.769-6.626-14.769-14.769s6.626-14.769 14.769-14.769 14.769 6.626 14.769 14.769-6.626 14.769-14.769 14.769z"></path>
<path fill="#ff3d7f" d="M21.974 10.026c-0.241-0.241-0.63-0.241-0.87 0l-5.103 5.103-5.103-5.103c-0.241-0.241-0.63-0.241-0.87 0s-0.241 0.63 0 0.87l5.103 5.103-5.103 5.103c-0.241 0.241-0.241 0.63 0 0.87 0.12 0.12 0.278 0.18 0.435 0.18s0.315-0.060 0.435-0.18l5.103-5.103 5.103 5.103c0.12 0.12 0.278 0.18 0.435 0.18s0.315-0.060 0.435-0.18c0.241-0.241 0.241-0.63 0-0.87l-5.103-5.103 5.103-5.103c0.241-0.241 0.241-0.63 0-0.87z"></path>
</svg>
