<?xml version="1.0" encoding="utf-8"?>
<!-- Generated by IcoMoon.io -->
<!DOCTYPE svg PUBLIC "-//W3C//DTD SVG 1.1//EN" "http://www.w3.org/Graphics/SVG/1.1/DTD/svg11.dtd">
<svg version="1.1" xmlns="http://www.w3.org/2000/svg" xmlns:xlink="http://www.w3.org/1999/xlink" width="32" height="32" viewBox="0 0 32 32">
<path fill="#1ecac7" d="M27.238 3.703c-3.007-2.388-6.998-3.703-11.238-3.703s-8.231 1.315-11.238 3.703c-3.042 2.416-4.717 5.639-4.717 9.075 0 3.049 1.36 6 3.829 8.309 2.323 2.172 5.499 3.662 8.979 4.22 0.235 2.138-0.504 4.287-2.016 5.814-0.147 0.148-0.19 0.37-0.11 0.562s0.268 0.318 0.476 0.318c3.908 0 7.252-2.85 7.934-6.691 3.484-0.556 6.663-2.047 8.988-4.221 2.47-2.309 3.831-5.261 3.831-8.31 0-3.436-1.675-6.659-4.717-9.075zM18.592 24.346c-0.269 0.037-0.463 0.276-0.444 0.547 0.001 0.015 0.003 0.029 0.005 0.044-0.455 3.045-2.817 5.414-5.753 5.928 1.216-1.7 1.747-3.833 1.446-5.935 0.002-0.012 0.003-0.024 0.004-0.037 0.019-0.271-0.175-0.51-0.444-0.547-7.144-0.987-12.329-5.852-12.329-11.568 0-6.477 6.695-11.746 14.923-11.746s14.923 5.269 14.923 11.746c0 5.717-5.186 10.582-12.332 11.568z"></path>
<path fill="#1ecac7" d="M10.721 11.23c-0.854 0-1.548 0.695-1.548 1.548s0.695 1.548 1.548 1.548 1.548-0.695 1.548-1.548-0.695-1.548-1.548-1.548zM10.721 13.294c-0.285 0-0.516-0.232-0.516-0.516s0.232-0.516 0.516-0.516 0.516 0.232 0.516 0.516-0.232 0.516-0.516 0.516z"></path>
<path fill="#1ecac7" d="M21.279 11.23c-0.854 0-1.548 0.695-1.548 1.548s0.695 1.548 1.548 1.548 1.548-0.695 1.548-1.548-0.695-1.548-1.548-1.548zM21.279 13.294c-0.285 0-0.516-0.232-0.516-0.516s0.232-0.516 0.516-0.516 0.516 0.232 0.516 0.516-0.232 0.516-0.516 0.516z"></path>
<path fill="#1ecac7" d="M16 11.23c-0.854 0-1.548 0.695-1.548 1.548s0.695 1.548 1.548 1.548 1.548-0.695 1.548-1.548-0.695-1.548-1.548-1.548zM16 13.294c-0.285 0-0.516-0.232-0.516-0.516s0.232-0.516 0.516-0.516 0.516 0.232 0.516 0.516-0.232 0.516-0.516 0.516z"></path>
</svg>
