<?xml version="1.0" encoding="utf-8"?>
<!-- Generated by IcoMoon.io -->
<!DOCTYPE svg PUBLIC "-//W3C//DTD SVG 1.1//EN" "http://www.w3.org/Graphics/SVG/1.1/DTD/svg11.dtd">
<svg version="1.1" xmlns="http://www.w3.org/2000/svg" xmlns:xlink="http://www.w3.org/1999/xlink" width="32" height="32" viewBox="0 0 32 32">
<path fill="#1ecac7" d="M26.882 3.467h-2.821c-0.285 0-0.516 0.231-0.516 0.516s0.231 0.516 0.516 0.516h2.305v26.469h-20.731v-26.469h2.305c0.285 0 0.516-0.231 0.516-0.516s-0.231-0.516-0.516-0.516h-2.821c-0.285 0-0.516 0.231-0.516 0.516v27.501c0 0.285 0.231 0.516 0.516 0.516h21.763c0.285 0 0.516-0.231 0.516-0.516v-27.501c0-0.285-0.231-0.516-0.516-0.516z"></path>
<path fill="#1ecac7" d="M10.004 6.084h8.594c0.285 0 0.516-0.231 0.516-0.516s-0.231-0.516-0.516-0.516h-8.078v-1.747c0-0.215 0.175-0.39 0.39-0.39h3.207c0.285 0 0.516-0.231 0.516-0.516 0-0.753 0.613-1.366 1.366-1.366s1.366 0.613 1.366 1.366c0 0.285 0.231 0.516 0.516 0.516h3.207c0.215 0 0.39 0.175 0.39 0.39v1.747h-0.818c-0.285 0-0.516 0.231-0.516 0.516s0.231 0.516 0.516 0.516h1.334c0.285 0 0.516-0.231 0.516-0.516v-2.263c0-0.784-0.638-1.423-1.423-1.423h-2.747c-0.237-1.075-1.197-1.882-2.343-1.882s-2.106 0.807-2.343 1.882h-2.747c-0.784 0-1.423 0.638-1.423 1.423v2.263c0 0.285 0.231 0.516 0.516 0.516z"></path>
<path fill="#1ecac7" d="M10.004 28.799h2.477c0.285 0 0.516-0.231 0.516-0.516v-2.477c0-0.285-0.231-0.516-0.516-0.516h-2.477c-0.285 0-0.516 0.231-0.516 0.516v2.477c0 0.285 0.231 0.516 0.516 0.516zM10.52 26.321h1.445v1.445h-1.445v-1.445z"></path>
<path fill="#1ecac7" d="M21.996 26.528h-7.45c-0.285 0-0.516 0.231-0.516 0.516s0.231 0.516 0.516 0.516h7.45c0.285 0 0.516-0.231 0.516-0.516s-0.231-0.516-0.516-0.516z"></path>
<path fill="#1ecac7" d="M10.004 23.12h2.477c0.285 0 0.516-0.231 0.516-0.516v-2.477c0-0.285-0.231-0.516-0.516-0.516h-2.477c-0.285 0-0.516 0.231-0.516 0.516v2.477c0 0.285 0.231 0.516 0.516 0.516zM10.52 20.643h1.445v1.445h-1.445v-1.445z"></path>
<path fill="#1ecac7" d="M21.996 20.849h-7.45c-0.285 0-0.516 0.231-0.516 0.516s0.231 0.516 0.516 0.516h7.45c0.285 0 0.516-0.231 0.516-0.516s-0.231-0.516-0.516-0.516z"></path>
<path fill="#1ecac7" d="M10.004 17.442h2.477c0.285 0 0.516-0.231 0.516-0.516v-2.477c0-0.285-0.231-0.516-0.516-0.516h-2.477c-0.285 0-0.516 0.231-0.516 0.516v2.477c0 0.285 0.231 0.516 0.516 0.516zM10.52 14.964h1.445v1.445h-1.445v-1.445z"></path>
<path fill="#1ecac7" d="M21.996 15.171h-7.45c-0.285 0-0.516 0.231-0.516 0.516s0.231 0.516 0.516 0.516h7.45c0.285 0 0.516-0.231 0.516-0.516s-0.231-0.516-0.516-0.516z"></path>
<path fill="#1ecac7" d="M10.004 11.763h2.477c0.285 0 0.516-0.231 0.516-0.516v-2.477c0-0.285-0.231-0.516-0.516-0.516h-2.477c-0.285 0-0.516 0.231-0.516 0.516v2.477c0 0.285 0.231 0.516 0.516 0.516zM10.52 9.286h1.445v1.445h-1.445v-1.445z"></path>
<path fill="#1ecac7" d="M21.996 9.492h-7.45c-0.285 0-0.516 0.231-0.516 0.516s0.231 0.516 0.516 0.516h7.45c0.285 0 0.516-0.231 0.516-0.516s-0.231-0.516-0.516-0.516z"></path>
</svg>
