<?xml version="1.0" encoding="utf-8"?>
<!-- Generated by IcoMoon.io -->
<!DOCTYPE svg PUBLIC "-//W3C//DTD SVG 1.1//EN" "http://www.w3.org/Graphics/SVG/1.1/DTD/svg11.dtd">
<svg version="1.1" xmlns="http://www.w3.org/2000/svg" xmlns:xlink="http://www.w3.org/1999/xlink" width="32" height="32" viewBox="0 0 32 32">
<path fill="#1ecac7" d="M7.864 11.313l3.695 3.082-1.178 4.662c-0.119 0.458 0.017 0.895 0.354 1.14 0.165 0.12 0.36 0.18 0.561 0.18 0.21 0 0.428-0.065 0.629-0.194l1.847-1.162c0.241-0.152 0.314-0.471 0.162-0.712s-0.47-0.314-0.712-0.162l-1.841 1.158 1.256-4.973c0.049-0.192-0.017-0.396-0.17-0.523l-3.939-3.285 5.117-0.342c0.198-0.013 0.371-0.139 0.445-0.323l1.907-4.761 1.907 4.761c0.074 0.184 0.247 0.31 0.445 0.323l5.118 0.342-3.939 3.285c-0.152 0.127-0.218 0.33-0.17 0.523l1.256 4.973-4.341-2.731c-0.168-0.106-0.382-0.106-0.55 0l-0.78 0.491c-0.241 0.152-0.314 0.47-0.162 0.712s0.47 0.314 0.712 0.162l0.505-0.318 4.070 2.561c0.399 0.255 0.856 0.26 1.194 0.015s0.473-0.682 0.355-1.137l-1.178-4.665 3.693-3.079c0.365-0.301 0.512-0.734 0.383-1.13s-0.502-0.661-0.971-0.689l-4.801-0.321-1.788-4.464c-0.173-0.44-0.54-0.714-0.957-0.714s-0.784 0.274-0.955 0.711l-1.789 4.467-4.798 0.321c-0.472 0.028-0.846 0.293-0.975 0.689s0.018 0.83 0.381 1.128z"></path>
<path fill="#1ecac7" d="M28.551 0h-25.103c-0.285 0-0.516 0.231-0.516 0.516v30.968c0 0.188 0.102 0.361 0.267 0.452s0.365 0.085 0.524-0.015l12.276-7.724 12.276 7.724c0.084 0.053 0.179 0.079 0.275 0.079 0.086 0 0.172-0.021 0.25-0.064 0.165-0.091 0.267-0.264 0.267-0.452v-30.968c0-0.285-0.231-0.516-0.516-0.516zM28.035 30.549l-11.76-7.399c-0.168-0.106-0.382-0.106-0.55 0l-11.76 7.399v-29.517h24.070v29.517z"></path>
</svg>
