<?xml version="1.0" encoding="utf-8"?>
<!-- Generated by IcoMoon.io -->
<!DOCTYPE svg PUBLIC "-//W3C//DTD SVG 1.1//EN" "http://www.w3.org/Graphics/SVG/1.1/DTD/svg11.dtd">
<svg version="1.1" xmlns="http://www.w3.org/2000/svg" xmlns:xlink="http://www.w3.org/1999/xlink" width="32" height="32" viewBox="0 0 32 32">
<path fill="#1ecac7" d="M31.484 1.032h-30.968c-0.285 0-0.516 0.231-0.516 0.516v28.903c0 0.285 0.231 0.516 0.516 0.516h30.968c0.285 0 0.516-0.231 0.516-0.516v-28.903c0-0.285-0.231-0.516-0.516-0.516zM30.968 2.065v2.409h-29.935v-2.409h29.935zM1.032 29.935v-24.43h29.935v24.43h-29.935z"></path>
<path fill="#1ecac7" d="M26.839 3.819c0.304 0 0.551-0.247 0.551-0.551s-0.247-0.551-0.551-0.551-0.551 0.247-0.551 0.551 0.247 0.551 0.551 0.551z"></path>
<path fill="#1ecac7" d="M29.247 3.819c0.304 0 0.551-0.247 0.551-0.551s-0.247-0.551-0.551-0.551-0.551 0.247-0.551 0.551 0.247 0.551 0.551 0.551z"></path>
<path fill="#1ecac7" d="M24.43 3.819c0.304 0 0.551-0.247 0.551-0.551s-0.247-0.551-0.551-0.551-0.551 0.247-0.551 0.551 0.247 0.551 0.551 0.551z"></path>
<path fill="#1ecac7" d="M27.355 11.699h-22.71c-0.285 0-0.516 0.231-0.516 0.516s0.231 0.516 0.516 0.516h22.71c0.285 0 0.516-0.231 0.516-0.516s-0.231-0.516-0.516-0.516z"></path>
<path fill="#1ecac7" d="M27.355 8.946h-22.71c-0.285 0-0.516 0.231-0.516 0.516s0.231 0.516 0.516 0.516h22.71c0.285 0 0.516-0.231 0.516-0.516s-0.231-0.516-0.516-0.516z"></path>
<path fill="#1ecac7" d="M14.624 17.204h-9.979c-0.285 0-0.516 0.231-0.516 0.516s0.231 0.516 0.516 0.516h9.979c0.285 0 0.516-0.231 0.516-0.516s-0.231-0.516-0.516-0.516z"></path>
<path fill="#1ecac7" d="M14.624 14.452h-9.979c-0.285 0-0.516 0.231-0.516 0.516s0.231 0.516 0.516 0.516h9.979c0.285 0 0.516-0.231 0.516-0.516s-0.231-0.516-0.516-0.516z"></path>
<path fill="#1ecac7" d="M14.624 19.957h-9.979c-0.285 0-0.516 0.231-0.516 0.516s0.231 0.516 0.516 0.516h9.979c0.285 0 0.516-0.231 0.516-0.516s-0.231-0.516-0.516-0.516z"></path>
<path fill="#1ecac7" d="M14.624 22.71h-9.979c-0.285 0-0.516 0.231-0.516 0.516s0.231 0.516 0.516 0.516h9.979c0.285 0 0.516-0.231 0.516-0.516s-0.231-0.516-0.516-0.516z"></path>
<path fill="#1ecac7" d="M27.355 14.452h-9.979c-0.285 0-0.516 0.231-0.516 0.516v1.72c0 0.285 0.231 0.516 0.516 0.516s0.516-0.231 0.516-0.516v-1.204h8.946v9.979h-8.946v-6.71c0-0.285-0.231-0.516-0.516-0.516s-0.516 0.231-0.516 0.516v7.226c0 0.285 0.231 0.516 0.516 0.516h9.979c0.285 0 0.516-0.231 0.516-0.516v-11.011c0-0.285-0.231-0.516-0.516-0.516z"></path>
<path fill="#1ecac7" d="M14.624 25.462h-9.979c-0.285 0-0.516 0.231-0.516 0.516s0.231 0.516 0.516 0.516h9.979c0.285 0 0.516-0.231 0.516-0.516s-0.231-0.516-0.516-0.516z"></path>
</svg>
