<svg style="position: absolute; width: 0; height: 0; overflow: hidden;" version="1.1" xmlns="http://www.w3.org/2000/svg" xmlns:xlink="http://www.w3.org/1999/xlink">
<defs>
<symbol id="icon-like" viewBox="0 0 32 32">
<title>like</title>
<path class="path1" fill="#ff3d7f" d="M31.947 9.996c-0.467-5.141-4.106-8.871-8.66-8.871-3.034 0-5.812 1.633-7.375 4.249-1.549-2.651-4.213-4.25-7.199-4.25-4.553 0-8.193 3.73-8.66 8.871-0.037 0.227-0.188 1.422 0.272 3.371 0.663 2.811 2.196 5.368 4.43 7.393l11.148 10.117 11.34-10.116c2.235-2.025 3.767-4.582 4.43-7.394 0.46-1.948 0.309-3.144 0.273-3.371zM30.476 13.084c-0.606 2.568-2.009 4.907-4.056 6.76l-10.509 9.376-10.329-9.373c-2.050-1.857-3.453-4.196-4.059-6.763-0.436-1.844-0.257-2.886-0.256-2.893l0.009-0.062c0.4-4.504 3.527-7.774 7.436-7.774 2.884 0 5.424 1.772 6.629 4.625l0.567 1.343 0.567-1.343c1.186-2.809 3.859-4.624 6.812-4.624 3.909 0 7.036 3.27 7.444 7.832 0.001 0.010 0.18 1.052-0.255 2.897z"></path>
</symbol>
<symbol id="icon-error" viewBox="0 0 32 32">
<title>error</title>
<path class="path1" fill="#ff3d7f" d="M16 0c-8.822 0-16 7.177-16 16s7.178 16 16 16 16-7.177 16-16-7.178-16-16-16zM16 30.769c-8.143 0-14.769-6.626-14.769-14.769s6.626-14.769 14.769-14.769 14.769 6.626 14.769 14.769-6.626 14.769-14.769 14.769z"></path>
<path class="path2" fill="#ff3d7f" d="M21.974 10.026c-0.241-0.241-0.63-0.241-0.87 0l-5.103 5.103-5.103-5.103c-0.241-0.241-0.63-0.241-0.87 0s-0.241 0.63 0 0.87l5.103 5.103-5.103 5.103c-0.241 0.241-0.241 0.63 0 0.87 0.12 0.12 0.278 0.18 0.435 0.18s0.315-0.060 0.435-0.18l5.103-5.103 5.103 5.103c0.12 0.12 0.278 0.18 0.435 0.18s0.315-0.060 0.435-0.18c0.241-0.241 0.241-0.63 0-0.87l-5.103-5.103 5.103-5.103c0.241-0.241 0.241-0.63 0-0.87z"></path>
</symbol>
<symbol id="icon-feedback" viewBox="0 0 32 32">
<title>feedback</title>
<path class="path1" fill="#1ecac7" d="M27.238 3.703c-3.007-2.388-6.998-3.703-11.238-3.703s-8.231 1.315-11.238 3.703c-3.042 2.416-4.717 5.639-4.717 9.075 0 3.049 1.36 6 3.829 8.309 2.323 2.172 5.499 3.662 8.979 4.22 0.235 2.138-0.504 4.287-2.016 5.814-0.147 0.148-0.19 0.37-0.11 0.562s0.268 0.318 0.476 0.318c3.908 0 7.252-2.85 7.934-6.691 3.484-0.556 6.663-2.047 8.988-4.221 2.47-2.309 3.831-5.261 3.831-8.31 0-3.436-1.675-6.659-4.717-9.075zM18.592 24.346c-0.269 0.037-0.463 0.276-0.444 0.547 0.001 0.015 0.003 0.029 0.005 0.044-0.455 3.045-2.817 5.414-5.753 5.928 1.216-1.7 1.747-3.833 1.446-5.935 0.002-0.012 0.003-0.024 0.004-0.037 0.019-0.271-0.175-0.51-0.444-0.547-7.144-0.987-12.329-5.852-12.329-11.568 0-6.477 6.695-11.746 14.923-11.746s14.923 5.269 14.923 11.746c0 5.717-5.186 10.582-12.332 11.568z"></path>
<path class="path2" fill="#1ecac7" d="M10.721 11.23c-0.854 0-1.548 0.695-1.548 1.548s0.695 1.548 1.548 1.548 1.548-0.695 1.548-1.548-0.695-1.548-1.548-1.548zM10.721 13.294c-0.285 0-0.516-0.232-0.516-0.516s0.232-0.516 0.516-0.516 0.516 0.232 0.516 0.516-0.232 0.516-0.516 0.516z"></path>
<path class="path3" fill="#1ecac7" d="M21.279 11.23c-0.854 0-1.548 0.695-1.548 1.548s0.695 1.548 1.548 1.548 1.548-0.695 1.548-1.548-0.695-1.548-1.548-1.548zM21.279 13.294c-0.285 0-0.516-0.232-0.516-0.516s0.232-0.516 0.516-0.516 0.516 0.232 0.516 0.516-0.232 0.516-0.516 0.516z"></path>
<path class="path4" fill="#1ecac7" d="M16 11.23c-0.854 0-1.548 0.695-1.548 1.548s0.695 1.548 1.548 1.548 1.548-0.695 1.548-1.548-0.695-1.548-1.548-1.548zM16 13.294c-0.285 0-0.516-0.232-0.516-0.516s0.232-0.516 0.516-0.516 0.516 0.232 0.516 0.516-0.232 0.516-0.516 0.516z"></path>
</symbol>
<symbol id="icon-menu" viewBox="0 0 32 32">
<title>menu</title>
<path class="path1" fill="#1ecac7" d="M26.882 3.467h-2.821c-0.285 0-0.516 0.231-0.516 0.516s0.231 0.516 0.516 0.516h2.305v26.469h-20.731v-26.469h2.305c0.285 0 0.516-0.231 0.516-0.516s-0.231-0.516-0.516-0.516h-2.821c-0.285 0-0.516 0.231-0.516 0.516v27.501c0 0.285 0.231 0.516 0.516 0.516h21.763c0.285 0 0.516-0.231 0.516-0.516v-27.501c0-0.285-0.231-0.516-0.516-0.516z"></path>
<path class="path2" fill="#1ecac7" d="M10.004 6.084h8.594c0.285 0 0.516-0.231 0.516-0.516s-0.231-0.516-0.516-0.516h-8.078v-1.747c0-0.215 0.175-0.39 0.39-0.39h3.207c0.285 0 0.516-0.231 0.516-0.516 0-0.753 0.613-1.366 1.366-1.366s1.366 0.613 1.366 1.366c0 0.285 0.231 0.516 0.516 0.516h3.207c0.215 0 0.39 0.175 0.39 0.39v1.747h-0.818c-0.285 0-0.516 0.231-0.516 0.516s0.231 0.516 0.516 0.516h1.334c0.285 0 0.516-0.231 0.516-0.516v-2.263c0-0.784-0.638-1.423-1.423-1.423h-2.747c-0.237-1.075-1.197-1.882-2.343-1.882s-2.106 0.807-2.343 1.882h-2.747c-0.784 0-1.423 0.638-1.423 1.423v2.263c0 0.285 0.231 0.516 0.516 0.516z"></path>
<path class="path3" fill="#1ecac7" d="M10.004 28.799h2.477c0.285 0 0.516-0.231 0.516-0.516v-2.477c0-0.285-0.231-0.516-0.516-0.516h-2.477c-0.285 0-0.516 0.231-0.516 0.516v2.477c0 0.285 0.231 0.516 0.516 0.516zM10.52 26.321h1.445v1.445h-1.445v-1.445z"></path>
<path class="path4" fill="#1ecac7" d="M21.996 26.528h-7.45c-0.285 0-0.516 0.231-0.516 0.516s0.231 0.516 0.516 0.516h7.45c0.285 0 0.516-0.231 0.516-0.516s-0.231-0.516-0.516-0.516z"></path>
<path class="path5" fill="#1ecac7" d="M10.004 23.12h2.477c0.285 0 0.516-0.231 0.516-0.516v-2.477c0-0.285-0.231-0.516-0.516-0.516h-2.477c-0.285 0-0.516 0.231-0.516 0.516v2.477c0 0.285 0.231 0.516 0.516 0.516zM10.52 20.643h1.445v1.445h-1.445v-1.445z"></path>
<path class="path6" fill="#1ecac7" d="M21.996 20.849h-7.45c-0.285 0-0.516 0.231-0.516 0.516s0.231 0.516 0.516 0.516h7.45c0.285 0 0.516-0.231 0.516-0.516s-0.231-0.516-0.516-0.516z"></path>
<path class="path7" fill="#1ecac7" d="M10.004 17.442h2.477c0.285 0 0.516-0.231 0.516-0.516v-2.477c0-0.285-0.231-0.516-0.516-0.516h-2.477c-0.285 0-0.516 0.231-0.516 0.516v2.477c0 0.285 0.231 0.516 0.516 0.516zM10.52 14.964h1.445v1.445h-1.445v-1.445z"></path>
<path class="path8" fill="#1ecac7" d="M21.996 15.171h-7.45c-0.285 0-0.516 0.231-0.516 0.516s0.231 0.516 0.516 0.516h7.45c0.285 0 0.516-0.231 0.516-0.516s-0.231-0.516-0.516-0.516z"></path>
<path class="path9" fill="#1ecac7" d="M10.004 11.763h2.477c0.285 0 0.516-0.231 0.516-0.516v-2.477c0-0.285-0.231-0.516-0.516-0.516h-2.477c-0.285 0-0.516 0.231-0.516 0.516v2.477c0 0.285 0.231 0.516 0.516 0.516zM10.52 9.286h1.445v1.445h-1.445v-1.445z"></path>
<path class="path10" fill="#1ecac7" d="M21.996 9.492h-7.45c-0.285 0-0.516 0.231-0.516 0.516s0.231 0.516 0.516 0.516h7.45c0.285 0 0.516-0.231 0.516-0.516s-0.231-0.516-0.516-0.516z"></path>
</symbol>
<symbol id="icon-tablefeed" viewBox="0 0 32 32">
<title>tablefeed</title>
<path class="path1" fill="#1ecac7" d="M31.484 1.032h-30.968c-0.285 0-0.516 0.231-0.516 0.516v28.903c0 0.285 0.231 0.516 0.516 0.516h30.968c0.285 0 0.516-0.231 0.516-0.516v-28.903c0-0.285-0.231-0.516-0.516-0.516zM30.968 2.065v2.409h-29.935v-2.409h29.935zM1.032 29.935v-24.43h29.935v24.43h-29.935z"></path>
<path class="path2" fill="#1ecac7" d="M26.839 3.819c0.304 0 0.551-0.247 0.551-0.551s-0.247-0.551-0.551-0.551-0.551 0.247-0.551 0.551 0.247 0.551 0.551 0.551z"></path>
<path class="path3" fill="#1ecac7" d="M29.247 3.819c0.304 0 0.551-0.247 0.551-0.551s-0.247-0.551-0.551-0.551-0.551 0.247-0.551 0.551 0.247 0.551 0.551 0.551z"></path>
<path class="path4" fill="#1ecac7" d="M24.43 3.819c0.304 0 0.551-0.247 0.551-0.551s-0.247-0.551-0.551-0.551-0.551 0.247-0.551 0.551 0.247 0.551 0.551 0.551z"></path>
<path class="path5" fill="#1ecac7" d="M27.355 11.699h-22.71c-0.285 0-0.516 0.231-0.516 0.516s0.231 0.516 0.516 0.516h22.71c0.285 0 0.516-0.231 0.516-0.516s-0.231-0.516-0.516-0.516z"></path>
<path class="path6" fill="#1ecac7" d="M27.355 8.946h-22.71c-0.285 0-0.516 0.231-0.516 0.516s0.231 0.516 0.516 0.516h22.71c0.285 0 0.516-0.231 0.516-0.516s-0.231-0.516-0.516-0.516z"></path>
<path class="path7" fill="#1ecac7" d="M14.624 17.204h-9.979c-0.285 0-0.516 0.231-0.516 0.516s0.231 0.516 0.516 0.516h9.979c0.285 0 0.516-0.231 0.516-0.516s-0.231-0.516-0.516-0.516z"></path>
<path class="path8" fill="#1ecac7" d="M14.624 14.452h-9.979c-0.285 0-0.516 0.231-0.516 0.516s0.231 0.516 0.516 0.516h9.979c0.285 0 0.516-0.231 0.516-0.516s-0.231-0.516-0.516-0.516z"></path>
<path class="path9" fill="#1ecac7" d="M14.624 19.957h-9.979c-0.285 0-0.516 0.231-0.516 0.516s0.231 0.516 0.516 0.516h9.979c0.285 0 0.516-0.231 0.516-0.516s-0.231-0.516-0.516-0.516z"></path>
<path class="path10" fill="#1ecac7" d="M14.624 22.71h-9.979c-0.285 0-0.516 0.231-0.516 0.516s0.231 0.516 0.516 0.516h9.979c0.285 0 0.516-0.231 0.516-0.516s-0.231-0.516-0.516-0.516z"></path>
<path class="path11" fill="#1ecac7" d="M27.355 14.452h-9.979c-0.285 0-0.516 0.231-0.516 0.516v1.72c0 0.285 0.231 0.516 0.516 0.516s0.516-0.231 0.516-0.516v-1.204h8.946v9.979h-8.946v-6.71c0-0.285-0.231-0.516-0.516-0.516s-0.516 0.231-0.516 0.516v7.226c0 0.285 0.231 0.516 0.516 0.516h9.979c0.285 0 0.516-0.231 0.516-0.516v-11.011c0-0.285-0.231-0.516-0.516-0.516z"></path>
<path class="path12" fill="#1ecac7" d="M14.624 25.462h-9.979c-0.285 0-0.516 0.231-0.516 0.516s0.231 0.516 0.516 0.516h9.979c0.285 0 0.516-0.231 0.516-0.516s-0.231-0.516-0.516-0.516z"></path>
</symbol>
<symbol id="icon-ribbon" viewBox="0 0 32 32">
<title>ribbon</title>
<path class="path1" fill="#1ecac7" d="M7.864 11.313l3.695 3.082-1.178 4.662c-0.119 0.458 0.017 0.895 0.354 1.14 0.165 0.12 0.36 0.18 0.561 0.18 0.21 0 0.428-0.065 0.629-0.194l1.847-1.162c0.241-0.152 0.314-0.471 0.162-0.712s-0.47-0.314-0.712-0.162l-1.841 1.158 1.256-4.973c0.049-0.192-0.017-0.396-0.17-0.523l-3.939-3.285 5.117-0.342c0.198-0.013 0.371-0.139 0.445-0.323l1.907-4.761 1.907 4.761c0.074 0.184 0.247 0.31 0.445 0.323l5.118 0.342-3.939 3.285c-0.152 0.127-0.218 0.33-0.17 0.523l1.256 4.973-4.341-2.731c-0.168-0.106-0.382-0.106-0.55 0l-0.78 0.491c-0.241 0.152-0.314 0.47-0.162 0.712s0.47 0.314 0.712 0.162l0.505-0.318 4.070 2.561c0.399 0.255 0.856 0.26 1.194 0.015s0.473-0.682 0.355-1.137l-1.178-4.665 3.693-3.079c0.365-0.301 0.512-0.734 0.383-1.13s-0.502-0.661-0.971-0.689l-4.801-0.321-1.788-4.464c-0.173-0.44-0.54-0.714-0.957-0.714s-0.784 0.274-0.955 0.711l-1.789 4.467-4.798 0.321c-0.472 0.028-0.846 0.293-0.975 0.689s0.018 0.83 0.381 1.128z"></path>
<path class="path2" fill="#1ecac7" d="M28.551 0h-25.103c-0.285 0-0.516 0.231-0.516 0.516v30.968c0 0.188 0.102 0.361 0.267 0.452s0.365 0.085 0.524-0.015l12.276-7.724 12.276 7.724c0.084 0.053 0.179 0.079 0.275 0.079 0.086 0 0.172-0.021 0.25-0.064 0.165-0.091 0.267-0.264 0.267-0.452v-30.968c0-0.285-0.231-0.516-0.516-0.516zM28.035 30.549l-11.76-7.399c-0.168-0.106-0.382-0.106-0.55 0l-11.76 7.399v-29.517h24.070v29.517z"></path>
</symbol>
</defs>
</svg>
